<?xml version="1.0" encoding="UTF-8" standalone="no"?>
<!-- Created with Inkscape (http://www.inkscape.org/) -->

<svg
   width="50mm"
   height="50mm"
   viewBox="0 0 50 50"
   version="1.1"
   id="svg1"
   inkscape:version="1.3.2 (091e20ef0f, 2023-11-25)"
   sodipodi:docname="cat_esd.svg"
   xml:space="preserve"
   inkscape:export-filename="cat_esd.png"
   inkscape:export-xdpi="254"
   inkscape:export-ydpi="254"
   xmlns:inkscape="http://www.inkscape.org/namespaces/inkscape"
   xmlns:sodipodi="http://sodipodi.sourceforge.net/DTD/sodipodi-0.dtd"
   xmlns="http://www.w3.org/2000/svg"
   xmlns:svg="http://www.w3.org/2000/svg"><sodipodi:namedview
     id="namedview1"
     pagecolor="#505050"
     bordercolor="#eeeeee"
     borderopacity="1"
     inkscape:showpageshadow="0"
     inkscape:pageopacity="0"
     inkscape:pagecheckerboard="0"
     inkscape:deskcolor="#505050"
     inkscape:document-units="mm"
     inkscape:zoom="2.8284271"
     inkscape:cx="23.334524"
     inkscape:cy="118.61716"
     inkscape:window-width="1908"
     inkscape:window-height="1028"
     inkscape:window-x="0"
     inkscape:window-y="0"
     inkscape:window-maximized="0"
     inkscape:current-layer="layer2" /><defs
     id="defs1"><inkscape:path-effect
       effect="powerclip"
       id="path-effect20"
       is_visible="true"
       lpeversion="1"
       inverse="true"
       flatten="false"
       hide_clip="false"
       message="Use fill-rule evenodd on &lt;b&gt;fill and stroke&lt;/b&gt; dialog if no flatten result after convert clip to paths." /><inkscape:path-effect
       effect="powerclip"
       id="path-effect17"
       is_visible="true"
       lpeversion="1"
       inverse="true"
       flatten="false"
       hide_clip="false"
       message="Use fill-rule evenodd on &lt;b&gt;fill and stroke&lt;/b&gt; dialog if no flatten result after convert clip to paths." /><clipPath
       clipPathUnits="userSpaceOnUse"
       id="clipPath17"><path
         style="font-variation-settings:'wght' 600;display:none;fill:#000000;fill-opacity:1;stroke-width:0.307999;stroke-dasharray:none"
         d="m 30.76154,14.156516 c -0.927319,0.859003 -2.069996,2.282039 -3.152372,3.268655 -1.072322,0.977451 -3.565534,2.997892 -5.411098,4.700619 -1.002179,0.924616 -2.174523,1.960817 -3.00702,3.040737 -0.79027,1.025143 -1.392008,2.19947 -1.875836,3.400035 -0.481867,1.1957 -1.050648,2.447206 -1.001808,3.735425 0.06032,1.591032 0.577322,3.395258 1.619141,4.599268 0.967277,1.117859 2.510295,1.402818 3.863166,1.3696 2.147856,-0.05274 4.08063,-0.997826 5.710399,-2.397795 1.835645,-1.576816 2.982339,-3.883715 4.372182,-5.758804 1.545069,-2.084512 3.011985,-4.22662 4.574693,-6.297943 1.064115,-1.410453 3.219897,-2.406619 3.268533,-4.172788 0.08328,-3.024113 -2.256554,-6.721811 -5.19484,-7.442002 -1.360474,-0.33346 -2.875999,1.131354 -3.76514,1.954993 z"
         id="path17"
         sodipodi:nodetypes="ssssssssssssss"
         inkscape:label="Paw Base" /><path
         id="lpe_path-effect17"
         style="font-variation-settings:'wght' 600;fill:#000000;fill-opacity:1;stroke-width:0.307999;stroke-dasharray:none"
         class="powerclip"
         d="M -1.151,-1.154 H 51.154293 V 45.490833 H -1.151 Z m 31.91254,15.310516 c -0.927319,0.859003 -2.069996,2.282039 -3.152372,3.268655 -1.072322,0.977451 -3.565534,2.997892 -5.411098,4.700619 -1.002179,0.924616 -2.174523,1.960817 -3.00702,3.040737 -0.79027,1.025143 -1.392008,2.19947 -1.875836,3.400035 -0.481867,1.1957 -1.050648,2.447206 -1.001808,3.735425 0.06032,1.591032 0.577322,3.395258 1.619141,4.599268 0.967277,1.117859 2.510295,1.402818 3.863166,1.3696 2.147856,-0.05274 4.08063,-0.997826 5.710399,-2.397795 1.835645,-1.576816 2.982339,-3.883715 4.372182,-5.758804 1.545069,-2.084512 3.011985,-4.22662 4.574693,-6.297943 1.064115,-1.410453 3.219897,-2.406619 3.268533,-4.172788 0.08328,-3.024113 -2.256554,-6.721811 -5.19484,-7.442002 -1.360474,-0.33346 -2.875999,1.131354 -3.76514,1.954993 z" /></clipPath><clipPath
       clipPathUnits="userSpaceOnUse"
       id="clipPath20"><path
         id="path20"
         style="display:none;opacity:1;fill:#000000;fill-opacity:1;stroke:none;stroke-width:0.307999;stroke-linecap:square;stroke-dasharray:none;stroke-opacity:1"
         inkscape:label="Cross"
         d="M 7.3075644,15.769063 47.27825,38.846207 45.354854,42.177271 5.3846841,19.100126 Z"
         sodipodi:nodetypes="ccccc" /><path
         id="lpe_path-effect20"
         style="display:inline;opacity:1;fill:#000000;fill-opacity:1;stroke:none;stroke-width:0.307999;stroke-linecap:square;stroke-dasharray:none;stroke-opacity:1"
         class="powerclip"
         d="M -1.151,-1.154 H 51.154293 V 45.490833 H -1.151 Z M 7.3075644,15.769063 5.3846841,19.100126 45.354854,42.177271 47.27825,38.846207 Z" /></clipPath></defs><g
     inkscape:label="Layer 1"
     inkscape:groupmode="layer"
     id="g2"
     style="display:none"><g
       inkscape:label="Original"
       id="layer1"
       transform="scale(0.15384615)"
       style="display:none;opacity:1"><rect
         style="opacity:1;fill:#ffff00;fill-opacity:1;stroke:none;stroke-width:2;stroke-linecap:square;stroke-opacity:1"
         id="rect2162"
         width="325"
         height="300"
         x="0"
         y="-4.2632564e-14" /><g
         id="g2293"
         transform="translate(-24.99221,-84.92175)"><path
           sodipodi:nodetypes="csssssssssssssssssccccc"
           d="m 260.52078,236.46084 c -28.01278,28.38479 -31.63354,36.65988 -54.0226,52.23845 -16.04214,11.1623 -25.6764,27.34178 -27.93867,27.42879 -2.26228,0.087 -0.33979,-5.67632 -9.04084,-6.28539 -8.70107,-0.60907 -13.18211,14.40013 -14.7048,14.18261 -1.52937,-0.21848 -0.34805,-4.26349 0.34804,-16.53188 0.69609,-12.26838 22.9708,-26.36399 23.05781,-32.71571 0.0572,-4.17698 -8.44003,-6.26471 -12.70355,-9.65808 -4.26351,-3.39339 -9.83219,-7.22183 -13.39963,-7.22183 -3.56743,0 -12.00516,13.13392 -13.66065,16.44487 -1.04414,2.08823 1.03142,12.26793 -0.26105,25.49389 -0.46613,4.76993 5.07357,2.93242 7.04786,13.92157 1.36179,7.57991 -2.5233,15.66178 -5.48167,18.5331 -2.95836,2.87133 -4.06432,-7.96599 -6.43878,-14.53064 -2.95837,-8.17893 -7.48291,-2.43628 -10.00622,-4.61153 -4.7523,-4.0968 -5.36965,-14.82836 -9.39716,-29.93139 -2.78434,-10.44118 -0.69607,-11.83334 1.39218,-14.96569 9.28142,-13.92199 14.96582,-25.75492 28.53949,-44.89709 13.44236,-18.95702 57.2036,-6.64775 91.66168,-30.15516 L 187.50001,109.92175 50.007794,348.11317 H 324.99221 Z"
           style="fill:#000000;fill-opacity:1;stroke:none;stroke-width:1.67872;stroke-linecap:square;stroke-opacity:1"
           id="path2280" /><path
           sodipodi:nodetypes="csssssss"
           id="path2229"
           d="m 146.11281,305.66621 c 2.80518,-0.15644 10.44128,-6.69977 6.00373,-15.8358 -4.43754,-9.13604 -4.95961,-9.83212 -1.47918,-16.87991 3.48043,-7.0478 5.82972,-7.13481 4.26353,-9.31006 -1.5662,-2.17524 -4.61155,2.16907 -8.00498,6.52574 -3.37167,4.32874 -5.30765,4.08946 -3.74146,12.18138 1.56619,8.09192 -0.69609,10.87623 -0.7831,14.35663 -0.087,3.48039 1.93486,9.06276 3.74146,8.96202 z"
           style="fill:#ffff00;fill-rule:evenodd;stroke:none;stroke-width:1px;stroke-linecap:butt;stroke-linejoin:miter;stroke-opacity:1" /><path
           id="path2231"
           d="m 161.25266,268.25197 c -2.69733,-3.4804 -8.78808,6.00367 -8.70107,12.70344 0.087,6.69975 3.13239,11.83333 4.8726,11.74632 1.74022,-0.087 3.39341,-4.78554 1.39217,-11.65932 -2.00124,-6.87377 -0.8701,-6.26471 0.87011,-7.83088 1.74021,-1.56618 3.39341,-2.95834 1.56619,-4.95956 z"
           style="fill:#ffff00;fill-rule:evenodd;stroke:none;stroke-width:1px;stroke-linecap:butt;stroke-linejoin:miter;stroke-opacity:1" /><path
           id="path2233"
           d="m 161.68771,278.2581 c 0,-5.82966 2.61032,-8.09192 4.26352,-8.00491 1.65321,0.087 2.17527,1.13113 2.26227,2.69731 0.087,1.56618 -2.17525,1.04412 -2.17525,4.08946 0,3.04534 1.47918,2.17525 1.56619,4.78554 0.087,2.6103 -2.17527,3.82844 -3.13239,3.74143 -0.95712,-0.087 -2.69732,-2.17525 -2.78434,-7.30883 z"
           style="fill:#ffff00;fill-rule:evenodd;stroke:none;stroke-width:1px;stroke-linecap:butt;stroke-linejoin:miter;stroke-opacity:1" /><path
           sodipodi:nodetypes="csssc"
           id="path2259"
           d="m 126.67743,325.56707 c 4.71112,7.20943 5.22691,7.09081 7.04015,6.80589 1.81325,-0.28494 0.88932,-4.6935 -1.71275,-12.36107 -1.91286,-5.63668 -7.42353,-4.51605 -7.98911,-3.78418 -0.56557,0.73185 -0.94896,3.0217 2.66171,9.33936 z"
           style="fill:#ffff00;fill-rule:evenodd;stroke:none;stroke-width:1px;stroke-linecap:butt;stroke-linejoin:miter;stroke-opacity:1" /><path
           sodipodi:nodetypes="csssc"
           id="path2261"
           d="m 160.76523,319.57727 c 5.33632,-7.5787 7.62342,-8.66957 12.06728,-5.41452 1.94146,1.42209 4.61549,6.45905 -1.58024,13.31399 -6.39304,7.07863 -9.28762,7.27995 -11.05906,5.84885 -1.77143,-1.43109 -5.01318,-7.11004 0.57202,-13.74832 z"
           style="fill:#ffff00;fill-rule:evenodd;stroke:none;stroke-width:1px;stroke-linecap:butt;stroke-linejoin:miter;stroke-opacity:1" /></g><rect
         style="opacity:1;fill:#ffff00;fill-opacity:1;stroke:none;stroke-width:2;stroke-linecap:square;stroke-opacity:1"
         id="rect2303"
         width="25"
         height="300"
         x="65.017609"
         y="-392.38623"
         transform="rotate(120)" /></g></g><g
     inkscape:groupmode="layer"
     id="layer2"
     inkscape:label="nyaa"
     style="display:inline;opacity:1"><g
       id="g18"
       inkscape:label="Content"
       clip-path="url(#clipPath20)"
       inkscape:path-effect="#path-effect20"
       transform="matrix(1.1818852,0,0,1.1818852,-4.5490761,-4.5455305)"><path
         style="font-variation-settings:'wght' 600;display:inline;opacity:1;fill:#000000;fill-opacity:1;stroke:none;stroke-width:0.1;stroke-dasharray:none;stroke-opacity:1"
         d="m 26.767946,34.767744 c -0.51268,0.570285 -1.196431,1.051962 -1.941216,1.234612 -0.294537,0.07223 -0.761498,0.144099 -0.952687,-0.09131 -0.283597,-0.349184 0.141825,-1.297641 0.335528,-1.703641 0.317843,-0.666195 1.172595,-2.157227 1.799238,-2.432532 0.313717,-0.137826 0.553132,-0.088 0.839049,0.100859 0.445103,0.294001 0.63902,0.9409 0.622922,1.474092 -0.01592,0.527276 -0.350163,1.02562 -0.702834,1.417917 z"
         id="path6"
         inkscape:label="Digital Pad 1"
         sodipodi:nodetypes="ssssssss"
         inkscape:original-d="m 26.767946,34.767744 c -0.51268,0.570285 -1.196431,1.051962 -1.941216,1.234612 -0.294537,0.07223 -0.761498,0.144099 -0.952687,-0.09131 -0.283597,-0.349184 0.141825,-1.297641 0.335528,-1.703641 0.317843,-0.666195 1.172595,-2.157227 1.799238,-2.432532 0.313717,-0.137826 0.553132,-0.088 0.839049,0.100859 0.445103,0.294001 0.63902,0.9409 0.622922,1.474092 -0.01592,0.527276 -0.350163,1.02562 -0.702834,1.417917 z" /><path
         style="font-variation-settings:'wght' 600;display:inline;opacity:1;fill:#000000;fill-opacity:1;stroke:none;stroke-width:0.1;stroke-dasharray:none;stroke-opacity:1"
         d="m 19.104774,35.365171 c 0.286914,-0.650043 0.885085,-1.205015 1.402786,-1.691699 0.589529,-0.554209 1.141263,-1.142701 1.916405,-1.374753 0.283664,-0.08492 0.651285,-0.143183 0.887608,0.03522 0.322781,0.243672 0.409175,0.749511 0.37841,1.152769 -0.05177,0.678615 -0.44135,1.307753 -0.9296,1.781895 -0.785698,0.762995 -2.109258,1.372159 -2.998708,1.417418 -0.320629,0.01632 -0.629972,-0.149885 -0.763077,-0.442035 -0.115211,-0.252875 -0.006,-0.624593 0.106176,-0.878815 z"
         id="path7"
         sodipodi:nodetypes="sssssssss"
         inkscape:label="Digital Pad 2"
         inkscape:original-d="m 19.104774,35.365171 c 0.286914,-0.650043 0.885085,-1.205015 1.402786,-1.691699 0.589529,-0.554209 1.141263,-1.142701 1.916405,-1.374753 0.283664,-0.08492 0.651285,-0.143183 0.887608,0.03522 0.322781,0.243672 0.409175,0.749511 0.37841,1.152769 -0.05177,0.678615 -0.44135,1.307753 -0.9296,1.781895 -0.785698,0.762995 -2.109258,1.372159 -2.998708,1.417418 -0.320629,0.01632 -0.629972,-0.149885 -0.763077,-0.442035 -0.115211,-0.252875 -0.006,-0.624593 0.106176,-0.878815 z" /><path
         style="font-variation-settings:'wght' 600;display:inline;opacity:1;fill:#000000;fill-opacity:1;stroke:none;stroke-width:0.1;stroke-dasharray:none;stroke-opacity:1"
         d="m 18.952419,30.510985 c 0.603698,-0.70764 1.483015,-1.349026 2.411552,-1.404019 0.594429,-0.03521 0.928501,0.463283 0.987829,1.079791 0.07193,0.747485 -0.428603,1.490531 -0.924644,2.054315 -0.624068,0.709296 -1.522853,1.367759 -2.463221,1.458689 -0.40292,0.03896 -0.830553,0.002 -0.989551,-0.37029 -0.313409,-0.733795 0.331416,-2.060536 0.978035,-2.818486 z"
         id="path8"
         sodipodi:nodetypes="sssssss"
         inkscape:label="Digital Pad 3"
         inkscape:original-d="m 18.952419,30.510985 c 0.603698,-0.70764 1.483015,-1.349026 2.411552,-1.404019 0.594429,-0.03521 0.928501,0.463283 0.987829,1.079791 0.07193,0.747485 -0.428603,1.490531 -0.924644,2.054315 -0.624068,0.709296 -1.522853,1.367759 -2.463221,1.458689 -0.40292,0.03896 -0.830553,0.002 -0.989551,-0.37029 -0.313409,-0.733795 0.331416,-2.060536 0.978035,-2.818486 z" /><path
         style="font-variation-settings:'wght' 600;display:inline;opacity:1;fill:#000000;fill-opacity:1;stroke:none;stroke-width:0.1;stroke-dasharray:none;stroke-opacity:1"
         d="m 19.86425,28.127158 c -0.388034,-0.302952 -0.163903,-1.031727 0.04797,-1.476092 0.441531,-0.926031 1.339948,-1.734842 2.327085,-2.014206 0.517001,-0.146314 1.233615,-0.141572 1.590848,0.259779 0.282941,0.317885 0.06211,1.466287 -0.23744,1.916066 -0.197383,0.29638 -0.881324,0.827316 -1.102499,0.958949 -0.816706,0.486065 -1.983088,0.85742 -2.625964,0.355504 z"
         id="path9"
         sodipodi:nodetypes="sssssss"
         inkscape:label="Digital Pad 4"
         inkscape:original-d="m 19.86425,28.127158 c -0.388034,-0.302952 -0.163903,-1.031727 0.04797,-1.476092 0.441531,-0.926031 1.339948,-1.734842 2.327085,-2.014206 0.517001,-0.146314 1.233615,-0.141572 1.590848,0.259779 0.282941,0.317885 0.06211,1.466287 -0.23744,1.916066 -0.197383,0.29638 -0.881324,0.827316 -1.102499,0.958949 -0.816706,0.486065 -1.983088,0.85742 -2.625964,0.355504 z" /><path
         style="font-variation-settings:'wght' 600;display:inline;opacity:1;fill:#000000;fill-opacity:1;stroke:none;stroke-width:0.1;stroke-dasharray:none;stroke-opacity:1"
         d="m 30.242508,25.739764 c 0.04908,-0.247145 0.01962,-1.051645 -0.170614,-1.472009 -0.121767,-0.269073 -0.505916,-0.853069 -0.98222,-1.033532 0.135235,-0.455026 0.280008,-0.987633 0.05817,-1.374915 -0.240263,-0.419452 -0.680907,-0.743451 -1.16337,-0.773397 -0.694387,-0.0431 -1.47805,0.546367 -1.969086,1.03923 -0.507452,0.50934 -0.789258,1.082195 -0.90089,1.792458 -0.05903,0.375601 0.132007,0.8075 0.138657,1.187654 0.0099,0.568015 -0.462309,1.098811 -0.584274,1.515842 -0.173854,0.594454 -0.219536,0.880499 -0.263256,1.498309 -0.05109,0.721905 -0.03846,2.056956 0.220993,2.413135 0.274525,0.37687 0.548192,0.567448 1.012807,0.528366 0.335185,-0.0282 1.41867,-0.754181 2.071571,-0.968644 0.809228,-0.265812 1.791315,0.02825 2.474975,-0.479802 0.491023,-0.364896 0.649617,-1.062484 0.784402,-1.659213 0.139962,-0.619648 0.347,-1.370364 0.0051,-1.905768 -0.123116,-0.192796 -0.501023,-0.271865 -0.732967,-0.307718 z"
         id="path10"
         inkscape:label="Metacarpal Pad"
         sodipodi:nodetypes="cscssssssssssssscc"
         inkscape:original-d="m 30.242508,25.739764 c 0.04908,-0.247145 0.01962,-1.051645 -0.170614,-1.472009 -0.121767,-0.269073 -0.505916,-0.853069 -0.98222,-1.033532 0.135235,-0.455026 0.280008,-0.987633 0.05817,-1.374915 -0.240263,-0.419452 -0.680907,-0.743451 -1.16337,-0.773397 -0.694387,-0.0431 -1.47805,0.546367 -1.969086,1.03923 -0.507452,0.50934 -0.789258,1.082195 -0.90089,1.792458 -0.05903,0.375601 0.132007,0.8075 0.138657,1.187654 0.0099,0.568015 -0.462309,1.098811 -0.584274,1.515842 -0.173854,0.594454 -0.219536,0.880499 -0.263256,1.498309 -0.05109,0.721905 -0.03846,2.056956 0.220993,2.413135 0.274525,0.37687 0.548192,0.567448 1.012807,0.528366 0.335185,-0.0282 1.41867,-0.754181 2.071571,-0.968644 0.809228,-0.265812 1.791315,0.02825 2.474975,-0.479802 0.491023,-0.364896 0.649617,-1.062484 0.784402,-1.659213 0.139962,-0.619648 0.347,-1.370364 0.0051,-1.905768 -0.123116,-0.192796 -0.501023,-0.271865 -0.732967,-0.307718 z" /><path
         sodipodi:nodetypes="cccc"
         d="M 25.001648,3.846 3.849,40.490833 H 46.154293 C 39.099445,28.278171 32.046071,16.064676 25.001648,3.846 Z"
         style="display:inline;opacity:1;fill:#000000;fill-opacity:1;stroke:none;stroke-width:0.258265;stroke-linecap:square;stroke-opacity:1"
         id="path2280-2"
         inkscape:label="Triangle"
         clip-path="url(#clipPath17)"
         inkscape:original-d="M 25.001648,3.846 3.849,40.490833 H 46.154293 C 39.099445,28.278171 32.046071,16.064676 25.001648,3.846 Z"
         inkscape:path-effect="#path-effect17" /></g></g></svg>
